<svg width="512" height="256" viewBox="0 0 512 256" xmlns="http://www.w3.org/2000/svg" role="img" aria-label="KrishiSetu">
  <defs>
    <linearGradient id="bg" x1="0" y1="0" x2="1" y2="1">
      <stop offset="0%" stop-color="#16a34a"/>
      <stop offset="100%" stop-color="#0e8f3a"/>
    </linearGradient>
  </defs>
  <rect width="512" height="256" rx="24" fill="url(#bg)"/>
  <g transform="translate(156,44)" fill="#ffffff">
    <path d="M180 16c-76 12-124 50-146 90-16 30-14 62 6 86s58 36 100 36c64 0 114-28 136-76 26-60 4-128-96-136z" opacity="0.15"/>
    <path d="M168 28c-88 14-144 58-170 106-17 30-15 63 6 86s60 34 104 34c66 0 118-28 140-78 28-66 8-134-80-148z"/>
    <path d="M64 188c36-64 104-140 196-188" fill="none" stroke="#e6ffe6" stroke-width="10" stroke-linecap="round"/>
  </g>
</svg>