<svg width="512" height="512" viewBox="0 0 512 512" xmlns="http://www.w3.org/2000/svg" role="img" aria-label="KrishiSetu">
  <defs>
    <linearGradient id="bg" x1="0" y1="0" x2="1" y2="1">
      <stop offset="0%" stop-color="#16a34a"/>
      <stop offset="100%" stop-color="#0e8f3a"/>
    </linearGradient>
    <filter id="shadow" x="-20%" y="-20%" width="140%" height="140%">
      <feDropShadow dx="0" dy="4" stdDeviation="6" flood-color="#0b5d29" flood-opacity="0.25"/>
    </filter>
  </defs>
  <rect width="512" height="512" rx="56" fill="url(#bg)"/>
  <g transform="translate(86,82)" fill="#ffffff" filter="url(#shadow)">
    <!-- Leaf icon -->
    <path d="M340 32C226 32 148 74 106 146c-30 52-32 113-6 157 26 44 82 64 154 64 92 0 164-40 192-104 34-68 14-156-106-231z" opacity="0.15"/>
    <path d="M308 54c-114 18-186 76-220 138-23 42-20 88 7 122 27 34 76 52 132 52 84 0 150-36 178-98 34-78 12-166-97-214z"/>
    <path d="M156 356c44-78 126-168 240-224" fill="none" stroke="#e6ffe6" stroke-width="14" stroke-linecap="round"/>
  </g>
</svg>