<svg width="192" height="192" viewBox="0 0 192 192" xmlns="http://www.w3.org/2000/svg" role="img" aria-label="KrishiSetu">
  <defs>
    <linearGradient id="bg" x1="0" y1="0" x2="1" y2="1">
      <stop offset="0%" stop-color="#16a34a"/>
      <stop offset="100%" stop-color="#0e8f3a"/>
    </linearGradient>
    <filter id="shadow" x="-20%" y="-20%" width="140%" height="140%">
      <feDropShadow dx="0" dy="2" stdDeviation="3" flood-color="#0b5d29" flood-opacity="0.25"/>
    </filter>
  </defs>
  <rect width="192" height="192" rx="28" fill="url(#bg)"/>
  <g transform="translate(32,30)" fill="#ffffff" filter="url(#shadow)">
    <!-- Leaf icon -->
    <path d="M112 12C74 12 44 28 29 54c-11 19-12 41-2 57 10 16 30 26 56 26 33 0 59-17 70-44 12-29 5-64-41-81z" opacity="0.15"/>
    <path d="M102 20c-38 6-62 25-73 46-8 16-7 33 2 46 9 13 26 20 46 20 28 0 50-13 60-36 11-26 4-56-35-76z"/>
    <path d="M52 116c14-26 40-56 76-74" fill="none" stroke="#e6ffe6" stroke-width="6" stroke-linecap="round"/>
  </g>
</svg>